# xmcd
# 
# Track frame offsets:
#     150
#     3715
#     34573
#     60165
#     81625
#     93770
#     119843
#     151190
#     180915
#     206075
#     221950
#     232000
# 
# Disc length: 3375
# 
# Revision: 1
# Processed by: cddbd v1.5.2PL0 Copyright (c) Steve Scherf et al.
# Submitted via: fre:ac v1.0.27
# 
DISCID=9f0d2d0c
DTITLE=Larry Bright - Double Standards
DYEAR=1994
DGENRE=Jazz Fusion
TTITLE0=Intro
TTITLE1=Big Time
TTITLE2=Double Standards
TTITLE3=Watch The Drums Talk
TTITLE4=Rice Kryspies
TTITLE5=Alka-Salsa
TTITLE6=Blessed
TTITLE7=Adult Funk
TTITLE8=Low Fat
TTITLE9=Garfield
TTITLE10=Hypertension
TTITLE11=Big Time (Vocal Version)
EXTD=Clean Music Records
EXTT0=
EXTT1=
EXTT2=
EXTT3=
EXTT4=
EXTT5=
EXTT6=
EXTT7=
EXTT8=
EXTT9=
EXTT10=
EXTT11=
PLAYORDER=
